<?xml version="1.0" encoding="utf-8"?>
<!-- Generator: Adobe Illustrator 23.0.0, SVG Export Plug-In . SVG Version: 6.00 Build 0)  -->
<svg version="1.1" id="Calque_1" xmlns="http://www.w3.org/2000/svg" xmlns:xlink="http://www.w3.org/1999/xlink" x="0px" y="0px"
	 viewBox="0 0 559.3 539.3" style="enable-background:new 0 0 559.3 539.3;" xml:space="preserve">
<style type="text/css">
	.st0{fill:url(#Petit_Octogone_1_);stroke:url(#Petit_Octogone_2_);stroke-miterlimit:10;}
	.st1{opacity:0.2;enable-background:new    ;}
	.st2{opacity:0.2;}
	.st3{enable-background:new    ;}
	.st4{fill:#FFFBBB;}
	.st5{fill:url(#Noeud_1_);}
	.st6{fill:url(#SVGID_1_);}
	.st7{fill:url(#SVGID_2_);}
	.st8{fill:url(#SVGID_3_);}
	.st9{fill:url(#SVGID_4_);}
</style>
<title>logo</title>
<radialGradient id="Petit_Octogone_1_" cx="248.2077" cy="294.7516" r="203.1249" gradientTransform="matrix(1 -9.000000e-02 -9.000000e-02 -1 62.2654 581.4237)" gradientUnits="userSpaceOnUse">
	<stop  offset="0.59" style="stop-color:#220000"/>
	<stop  offset="1" style="stop-color:#580000"/>
</radialGradient>
<linearGradient id="Petit_Octogone_2_" gradientUnits="userSpaceOnUse" x1="-255.3545" y1="24.5768" x2="138.8654" y2="24.5768" gradientTransform="matrix(0.71 -0.71 -0.71 -0.71 343.1095 241.9395)">
	<stop  offset="0" style="stop-color:#FFFBBB"/>
	<stop  offset="0.2" style="stop-color:#E8BD5F"/>
	<stop  offset="0.4" style="stop-color:#FBF1AC"/>
	<stop  offset="0.6" style="stop-color:#EDC971"/>
	<stop  offset="0.8" style="stop-color:#FCF4B1"/>
	<stop  offset="1" style="stop-color:#F0D380"/>
</linearGradient>
<polygon id="Petit_Octogone" class="st0" points="202.7,69.5 87.6,184.7 87.5,347.5 202.7,462.6 365.5,462.6 480.6,347.4 
	480.7,184.6 365.5,69.5 "/>
<g id="Calque_3">
	<g id="Lettres">
		<g id="_x32_020_Ombre" class="st1">
			<path d="M258.4,423.6h-14.3v-2.5c0-1.1,0.3-2.2,1-3.3c0.7-1.1,1.5-2,2.5-2.8c1-0.8,2.1-1.7,3.2-2.6c1.2-0.9,2.2-1.7,3.2-2.5
				c1-0.8,1.8-1.6,2.5-2.5c0.7-0.9,1-1.8,1-2.7c0-1.2-0.2-2.2-0.5-3c-0.3-0.8-0.8-1.3-1.5-1.7c-0.7-0.3-1.3-0.6-2-0.7
				c-0.7-0.1-1.5-0.2-2.4-0.2c-1.4,0-2.6,0.3-3.5,1c-0.9,0.6-1.7,1.8-2.2,3.4l3.9,2.9h-1.8l-3.3-2.5c0.5-2,1.3-3.4,2.4-4.4
				c1.1-1,2.6-1.4,4.5-1.4c2.6,0,4.5,0.5,5.7,1.5c1.2,1,1.8,2.7,1.8,5c0,1.1-0.3,2.1-1,3.1s-1.5,1.9-2.5,2.7c-1,0.8-2.1,1.6-3.2,2.5
				s-2.2,1.7-3.2,2.5c-1,0.8-1.8,1.6-2.5,2.6c-0.7,1-1,2-1,3v1.4h13.2V423.6z"/>
			<path d="M276.7,420.5c-1.2,2.3-3.1,3.5-5.7,3.5c-2.6,0-4.5-1.2-5.7-3.5c-1.2-2.3-1.9-5.5-1.9-9.5c0-4,0.6-7.1,1.9-9.5
				c1.2-2.3,3.1-3.5,5.7-3.5c2.6,0,4.5,1.2,5.7,3.5c1.2,2.3,1.9,5.5,1.9,9.5S277.9,418.1,276.7,420.5z M275.8,402.4
				c-1.1-2.2-2.7-3.3-4.8-3.3s-3.7,1.1-4.8,3.2c-1.1,2.2-1.7,5-1.7,8.6c0,3.6,0.6,6.5,1.7,8.6c1.1,2.2,2.7,3.2,4.8,3.2
				s3.7-1.1,4.8-3.3c1.1-2.2,1.7-5,1.7-8.6S276.9,404.6,275.8,402.4z"/>
			<path d="M297.7,423.6h-14.3v-2.5c0-1.1,0.3-2.2,1-3.3s1.5-2,2.5-2.8c1-0.8,2.1-1.7,3.2-2.6c1.2-0.9,2.2-1.7,3.2-2.5
				s1.8-1.6,2.5-2.5c0.7-0.9,1-1.8,1-2.7c0-1.2-0.2-2.2-0.5-3c-0.3-0.8-0.8-1.3-1.5-1.7s-1.3-0.6-2-0.7c-0.7-0.1-1.5-0.2-2.4-0.2
				c-1.4,0-2.6,0.3-3.5,1c-0.9,0.6-1.7,1.8-2.2,3.4l3.9,2.9h-1.8l-3.3-2.5c0.5-2,1.3-3.4,2.4-4.4s2.6-1.4,4.5-1.4
				c2.6,0,4.5,0.5,5.7,1.5c1.2,1,1.8,2.7,1.8,5c0,1.1-0.3,2.1-1,3.1s-1.5,1.9-2.5,2.7c-1,0.8-2.1,1.6-3.2,2.5
				c-1.2,0.9-2.2,1.7-3.2,2.5s-1.8,1.6-2.5,2.6s-1,2-1,3v1.4h13.2V423.6z"/>
			<path d="M316,420.5c-1.2,2.3-3.1,3.5-5.7,3.5c-2.6,0-4.5-1.2-5.7-3.5c-1.2-2.3-1.9-5.5-1.9-9.5c0-4,0.6-7.1,1.9-9.5
				c1.2-2.3,3.1-3.5,5.7-3.5c2.6,0,4.5,1.2,5.7,3.5c1.2,2.3,1.9,5.5,1.9,9.5S317.3,418.1,316,420.5z M315.1,402.4
				c-1.1-2.2-2.7-3.3-4.8-3.3s-3.7,1.1-4.8,3.2c-1.1,2.2-1.7,5-1.7,8.6c0,3.6,0.6,6.5,1.7,8.6c1.1,2.2,2.7,3.2,4.8,3.2
				s3.7-1.1,4.8-3.3s1.7-5,1.7-8.6S316.2,404.6,315.1,402.4z"/>
		</g>
		<g id="INSA_Lyon_Ombre" class="st1">
			<path d="M207.8,308.4h-1.1v-25.2h1.1V308.4z"/>
			<path d="M217.7,307.3h11.2L216,285v23.4h-1.1v-25.2h1.3l13.5,23.3v-23.3h1.1v25.2h-13V307.3z"/>
			<path d="M237.1,289.4c0-2.3,0.6-4,1.8-5c1.2-1,3.1-1.5,5.7-1.5c1.8,0,3.3,0.5,4.5,1.4c1.1,1,1.9,2.4,2.4,4.4l-3.3,2.5h-1.8
				l3.9-2.9c-0.5-1.6-1.2-2.7-2.2-3.4c-0.9-0.6-2.1-1-3.5-1c-1,0-1.8,0.1-2.4,0.2c-0.7,0.1-1.3,0.4-2,0.7c-0.7,0.3-1.2,0.9-1.5,1.7
				c-0.3,0.8-0.5,1.8-0.5,3c0,1.1,0.5,2,1.5,2.8c1,0.8,2.2,1.5,3.5,2.1c1.4,0.6,2.8,1.2,4.2,1.8c1.4,0.6,2.6,1.4,3.6,2.3
				c1,0.9,1.5,2,1.5,3.2c0,2.4-0.6,4.2-1.8,5.4s-3.2,1.8-6.1,1.8c-2.4,0-4.2-0.5-5.5-1.4c-1.3-0.9-2.3-2.4-2.8-4.4l1-0.4
				c0.5,1.9,1.3,3.3,2.5,4.1c1.2,0.8,2.8,1.1,4.8,1.1c2.3,0,4-0.4,5.1-1.3c1.1-0.9,1.7-2.5,1.7-4.7c0-1.1-0.5-2-1.5-2.8
				c-1-0.8-2.2-1.5-3.6-2.1c-1.4-0.6-2.8-1.2-4.2-1.8c-1.4-0.6-2.6-1.4-3.5-2.3C237.6,291.7,237.1,290.6,237.1,289.4z"/>
			<path d="M258.7,307.3h13.2l-7.6-21l-8,22.1h-1.2l9.2-25.2l9.2,25.2h-14.8V307.3z"/>
			<path d="M303.3,307.3v1.1h-15v-25.2h1.1v24.1H303.3z"/>
			<path d="M308.7,283.2h14.6l-9,14.4v10.8h-1.1v-10.8l-9-14.4h1.3l8.3,13.2l7.6-12.1h-12.6V283.2z"/>
			<path d="M341.1,306c-1.3,1.8-3.5,2.7-6.4,2.7s-5.1-0.9-6.4-2.7c-1.3-1.8-2-4.6-2-8.5V294c0-3.8,0.7-6.7,2-8.5s3.5-2.7,6.4-2.7
				s5.1,0.9,6.4,2.7c1.3,1.8,2,4.6,2,8.5v3.5C343.1,301.4,342.4,304.2,341.1,306z M337.7,284.3c-0.8-0.3-1.8-0.4-3-0.4
				s-2.2,0.2-3,0.4c-0.8,0.3-1.6,0.8-2.3,1.5c-0.7,0.7-1.2,1.8-1.5,3.1c-0.3,1.4-0.5,3-0.5,5v3.5c0,2,0.2,3.7,0.5,5
				c0.3,1.4,0.8,2.4,1.5,3.1c0.7,0.7,1.4,1.2,2.3,1.5c0.8,0.3,1.8,0.4,3,0.4s2.2-0.1,3-0.4c0.8-0.3,1.6-0.8,2.3-1.5
				c0.7-0.7,1.2-1.8,1.5-3.1s0.5-3,0.5-5V294c0-2-0.2-3.7-0.5-5s-0.8-2.4-1.5-3.1C339.3,285.1,338.6,284.6,337.7,284.3z"/>
			<path d="M352.2,307.3h11.2L350.5,285v23.4h-1.1v-25.2h1.3l13.5,23.3v-23.3h1.1v25.2h-13V307.3z"/>
		</g>
		<path id="Noeud_Ombre" class="st1" d="M339.3,389.1l-4.7-0.9l-14.6-3c-2.9-0.6-5.7-1.1-8.5-1.8l0,0c-0.7-0.2-1.4-0.6-2-1.1
			c-2.1-1.8-4.2-3.7-6.3-5.5c-1.4-1.2-2.9-2.4-4.4-3.6c-0.9-0.8-1.8-1.6-2.6-2.4c-1.2-1.1-1.6-1-3.2-0.5l0,0c-2,0.6-4,1.1-6.1,1.5
			l0,0c-5.6,1-11.4,0.5-16.8-1.4l0,0c-0.7-0.3-1.5-0.2-2,0.3l-4.5,3.9l-6.9,5.9l0,0c-0.6,0.6-1.1,1.1-1.7,1.6l0,0
			c-0.8,0.6-1.7,1.1-2.6,1.4c-4.2,0.9-8.4,1.8-12.7,2.6l-10.3,2.1c-1.3,0.3-2.7,0.5-4,0.8h-0.8c0.2-1.6,0.4-3.1,0.6-4.6
			c0.3-2.3,0.7-4.6,1.1-7l1.2-7.5c0.5-3.3,0.8-6.7,1.5-10c0.9-4,0.1-7.9-0.5-11.7s-1.1-7.5-1.7-11.3c-0.5-3.3-1.1-6.5-1.6-9.8
			c-0.2-1.5-0.4-3-0.6-4.8l0,0c1.1,0.1,2.3,0.2,3.4,0.5c4.5,1.3,9,2.6,13.6,3.9l15.7,4.5l0,0c0.6,0.2,1.1,0.5,1.6,0.9
			c2.8,2.5,5.5,5,8.3,7.5c1.3,1.2,1.8,1.3,3.5,0.7l0,0c1.4-0.5,2.9-0.9,4.4-1.1l0,0c2.5-0.5,5.1-0.7,7.7-0.6c3.8,0.2,7.5,0.6,11,2.3
			l0,0c0.9,0.4,1.9,0.2,2.5-0.5c3.1-2.8,6.2-5.7,9.3-8.5l0,0c0.3-0.2,0.6-0.4,1-0.5c3.8-1,7.4-2,11.1-3.1c3.2-0.9,6.4-1.8,9.6-2.8
			s6.6-1.9,9.9-2.8l0,0l2.4-0.3l0,0c0,0.8,0,1.7-0.1,2.5c-0.4,2.6-0.9,5.1-1.3,7.7c-0.3,1.5-0.4,3.1-0.6,4.7
			c-0.4,2.9-0.9,5.8-1.4,8.7c-0.4,2.4-0.7,4.8-1.1,7.2l0,0c-0.3,2.5-0.1,5,0.4,7.4c0.7,4.4,1.3,8.8,2,13.2l2.1,13.2l0,0
			C339.3,387.7,339.2,388.4,339.3,389.1z M308.5,356.5h-10.8c-1.2,0-1.8,0.5-1.8,1.6v9.1l0,0c0.1,0.5,0.3,1,0.6,1.4
			c1.7,1.6,3.5,3.1,5.2,4.7c2.5,2.1,4.9,4.3,7.4,6.4c0.9,1,2,1.7,3.2,2.1c7.5,1.6,15.1,3.1,22.7,4.6h1c-0.1-0.3-0.1-0.7-0.2-1l0,0
			l-0.3-0.6c-1.1-2-2.2-4.1-3.3-6.2c-2.4-4.7-4.8-9.4-7.3-14c-1.1-2.1-2.3-4.2-3.4-6.4l0,0c-0.5-1.1-1.7-1.8-2.9-1.7
			C315.4,356.6,311.9,356.5,308.5,356.5L308.5,356.5z M267.3,363L267.3,363c0-1.6,0.1-3.1,0-4.7c-0.1-1.3-0.7-1.8-1.9-1.8h-21
			c-0.8,0-1.6,0.4-1.9,1.2c-2.1,4.2-4.3,8.4-6.5,12.5s-4.4,8.4-6.7,12.7c-0.3,0.7-0.7,1.3-1.1,1.9c-0.4,0.6-0.2,1.1,0.7,1
			c1.8-0.1,3.7-0.4,5.5-0.7c5.7-1.1,11.4-2.2,17-3.3l0,0c0.6-0.2,1.2-0.5,1.7-0.9c1.1-0.9,2.2-1.9,3.3-2.8c3.4-3,6.7-6,10-8.9l0,0
			c0.6-0.6,1-1.4,0.9-2.2C267.3,365.7,267.4,364.3,267.3,363L267.3,363z M293.9,355.5V345c0-1.9-0.5-2.5-2.3-3.1l0,0
			c-2.3-0.7-4.7-1.1-7.1-1.2l0,0c-4-0.3-8-0.1-11.9,0.8l0,0c-1.2,0.2-2.3,0.7-3.1,1.6l0,0c-0.3,0.4-0.5,0.8-0.5,1.3v20.7
			c0,2.4,0.6,3.3,3,4l0,0c6.6,1.7,13.5,1.6,20-0.4c1.6-0.6,2-1.1,2-2.8L293.9,355.5z M336.3,324.9c-1.2,0.2-2.2,0.4-3.1,0.6
			l-9.5,2.6c-5.1,1.4-10.1,2.8-15.2,4.3l0,0c-0.9,0.3-1.7,0.7-2.4,1.4c-1.7,1.5-3.3,3-5,4.5c-1.5,1.4-3,2.6-4.4,4.1l0,0
			c-0.4,0.5-0.7,1.1-0.8,1.8c-0.1,2.8,0,5.5,0,8.3c0,1.3,0.4,1.7,1.7,1.7h22c0.8,0,1.5-0.4,1.9-1.1l1.8-3.3c1.1-2.1,2.2-4.4,3.4-6.5
			L336.3,324.9z M254.9,354.3h10.4c1.4,0,1.8-0.4,2-1.7l0,0v-1c0-2.3-0.1-4.7,0-7l0,0c0.1-1.4-0.6-2.8-1.7-3.7
			c-2.3-2-4.4-4.2-6.7-6.2l0,0c-1-0.9-2.2-1.7-3.5-2.3l0,0c-1.5-0.5-3.1-1-4.7-1.4c-4.6-1.3-9.2-2.6-13.8-3.8
			c-2.6-0.7-5.2-1.4-7.9-2.1h-1.1c0,0.3,0.1,0.7,0.2,1c0.5,1,1.1,2,1.6,3c0.9,1.6,1.8,3.3,2.6,4.9c3.3,6.3,6.7,12.6,10,18.9l0,0
			c0.4,0.9,1.2,1.5,2.2,1.4C248,354.2,251.4,354.2,254.9,354.3L254.9,354.3z M336.4,382.4l0.3-0.1c0-0.4,0-0.7-0.1-1.1l-1.6-9.9
			c-0.6-3.8-1.3-7.5-1.7-11.3l0,0c-0.3-2-0.4-3.9-0.3-5.9c0.2-2,0.4-4,0.8-6c0.3-2.4,0.7-4.7,1-7c0.7-4.1,1.4-8.2,2.1-12.2l0,0v-0.8
			c-0.2,0.2-0.3,0.2-0.3,0.3l-4.5,8.7c-3,5.7-5.9,11.3-8.9,17l0,0c-0.6,1-0.6,2.3,0.1,3.3c0.6,1.1,1.2,2.3,1.8,3.4l4.3,8.2
			c1.4,2.7,2.9,5.4,4.3,8.2c0.7,1.4,1.4,2.9,2.1,4.4l0,0C336.1,381.8,336.3,382.1,336.4,382.4L336.4,382.4z M227.8,329.1l-0.3,0.1
			c0,0.4,0,0.9,0.1,1.3l1.8,11.7c0.6,3.7,1.2,7.5,1.8,11.2l0,0c0.2,1.4,0.2,2.9,0,4.3c-0.2,2-0.6,3.9-0.9,5.9s-0.6,4.4-0.9,6.5
			c-0.6,3.5-1.3,7-1.9,10.4l0,0c-0.1,0.5-0.1,0.9-0.1,1.4l0.2,0.1c0.2-0.3,0.3-0.5,0.5-0.8c0.9-1.8,1.8-3.6,2.8-5.4
			c0.6-1.1,1.3-2.1,1.9-3.2c1-1.7,1.9-3.5,2.8-5.3l5.5-10.6l0,0c0.4-0.8,0.4-1.7,0-2.5c-1.8-3.5-3.6-7.1-5.5-10.6
			c-2.4-4.5-4.8-9-7.2-13.6L227.8,329.1z"/>
		<g id="Bal_Ombre" class="st2">
			<path d="M219.5,210.8l1.8,0.8c1.8,0.9,3.6,1.7,5.4,2.6l0,0c2.6,1.4,5,3.2,7,5.4l0,0c1.9,2,3.4,4.5,4.4,7.1c0.5,1.3,1,2.7,1.4,4
				l0,0c0.2,1,0.3,1.9,0.4,2.9c0,2.3,0.1,4.5,0,6.8l0,0c-0.1,1-0.3,2-0.6,3l0,0c-0.4,1.9-1.2,3.8-2.1,5.5l0,0
				c-1.5,2.8-3.5,5.2-5.9,7.2l0,0c-2.2,2-4.7,3.6-7.4,4.8l0,0c-1.7,0.8-3.5,1.5-5.3,2.1c-1.9,0.6-3.8,1.1-5.7,1.5l0,0
				c-1.1,0.2-2.2,0.4-3.3,0.5c-2.4,0.3-4.8,0.7-7.2,0.8c-3.6,0.2-7.2,0.4-10.8,0.4H166c-1.1,0-1.2-0.1-1.2-1.2v-3.3c0-0.7,0.2-1,1-1
				h31.3c1.8,0,3.7-0.1,5.5-0.3l0,0c2.2-0.2,4.4-0.6,6.5-1c2.5-0.5,4.9-1.3,7.3-1.9l0,0c2.6-0.7,5.1-1.7,7.4-3.1l0,0
				c3-1.7,5.5-4.2,7.2-7.3l0,0c0.9-1.7,1.7-3.6,2.2-5.5l0,0c0.1-0.5,0.2-0.9,0.2-1.4l0,0c0.2-1.4,0.3-2.9,0.3-4.3l0,0
				c-0.2-1.9-0.5-3.8-0.9-5.6l0,0c-0.8-3-2.4-5.7-4.6-7.9l0,0c-1.9-1.9-4.2-3.5-6.6-4.7l0,0c-2.6-1.2-5.3-2.2-8.1-3
				c-1.6-0.5-3.1-1-4.7-1.5c-0.9-0.3-1.9-0.6-2.8-0.9c-0.2-0.1-0.6-0.3-0.6-0.5l0,0c0-0.3,0.2-0.5,0.4-0.7c1.1-0.6,2.3-1.1,3.4-1.7
				c3.4-1.7,7-3.1,10.1-5.3l0,0c2.5-1.6,4.5-4,5.8-6.7l0,0c0.5-1.4,1-2.7,1.4-4.1l0,0c0.7-2.6,0.8-5.4,0.3-8.1l0,0
				c-0.7-4.4-3-8.4-6.5-11.1l0,0c-2.6-2-5.4-3.5-8.5-4.5c-2.2-0.7-4.4-1.3-6.6-1.8l0,0c-3.7-0.7-7.4-1.2-11.2-1.4
				c-7.4-0.5-14.8-0.1-22.3-0.3c-0.5,0-0.8,0.1-0.7,0.7l0,0v83.1c0,0.6-0.2,0.9-0.8,0.9h-4.9c-0.2,0-0.5-0.4-0.5-0.6
				c-0.1-0.8-0.1-1.7,0-2.5v-85.6c0-1.2,0-1.2,1.3-1.2c9.1,0,18.2,0,27.3,0.1l0,0c2.4,0,4.7,0.2,7.1,0.5l0,0c2.5,0.3,5,0.8,7.4,1.3
				c2.1,0.5,4.2,1.3,6.4,1.9l0,0c2.4,0.7,4.6,1.7,6.7,3l0,0c3,1.7,5.6,3.9,7.8,6.6l0,0c1.3,1.7,2.4,3.6,3.2,5.6l0,0
				c0.9,2.5,1.4,5.1,1.5,7.7l0,0c0.1,2.2,0,4.4-0.4,6.5l0,0c-0.5,2.8-1.6,5.5-3.1,7.9l0,0C227.2,205.7,223.6,208.7,219.5,210.8z"/>
			<path d="M332.3,261L332.3,261c0-0.2,0-0.3-0.1-0.5c-0.8-1.7-1.5-3.4-2.3-5.1c-0.5-1-0.9-2.1-1.2-3.2l-1.2-2.7
				c-0.6-1.4-1.3-2.9-1.9-4.3c-0.9-2.2-1.8-4.4-2.8-6.6c-0.6-1.5-1.4-3-2-4.5c-0.5-1.1-0.9-2.3-1.4-3.4c-0.7-1.8-1.5-3.6-2.3-5.5
				s-1.6-3.7-2.4-5.6c-1.1-2.6-2.1-5.1-3.2-7.6c-0.6-1.5-1.4-3-2-4.4c-0.9-2.1-1.7-4.2-2.6-6.2s-1.9-4.4-2.8-6.6
				c-0.8-1.9-1.6-3.9-2.5-5.8c-0.6-1.4-1.2-2.7-1.9-4.1c-0.8-1.9-1.7-3.9-2.5-5.8c-0.3-0.6-0.4-1.2-0.7-1.8l0,0
				c-0.2-0.4-0.4-0.8-0.7-1.1l-0.9,2.1c-0.7,1.6-1.4,3.2-2,4.8s-1.3,3.2-2,4.8c-0.4,1-0.9,1.9-1.3,2.9c-0.8,1.9-1.6,3.7-2.4,5.6
				c-0.9,2.2-1.8,4.3-2.8,6.4c-0.6,1.5-1.4,3.1-2,4.6c-0.5,1.2-1,2.4-1.5,3.5l-2.4,5.7c-1.1,2.7-2.3,5.4-3.5,8
				c-1,2.3-1.9,4.6-2.8,6.8c-0.8,1.9-1.6,3.7-2.4,5.6c-0.5,1.2-1,2.5-1.5,3.7s-1,2.4-1.5,3.5c-0.7,1.7-1.4,3.3-2.2,5
				c-0.8,1.7-1.4,3.3-2.1,4.9c-0.5,1.3-1,2.5-1.6,3.8c-0.8,1.9-1.7,3.9-2.5,5.8c-0.3,0.6-0.5,1.3-0.8,1.9l0,0
				c-0.2,0.6-0.8,0.9-1.4,0.9h-4.5c-1,0-1.3-0.5-0.9-1.4c0.6-1.4,1.3-2.9,1.9-4.3c1.1-2.4,2.1-4.8,3.1-7.2c0.7-1.7,1.4-3.4,2.1-5
				c0.9-2.2,1.9-4.4,2.8-6.6c0.8-2,1.6-4,2.5-6.1c0.5-1.2,1.1-2.3,1.6-3.5s1-2.5,1.5-3.8c0.6-1.5,1.2-3.1,1.8-4.6
				c0.5-1.1,1-2.1,1.5-3.2c0.9-2.1,1.7-4.2,2.6-6.2c0.6-1.5,1.4-3,2-4.6s1.2-3.1,1.9-4.6c0.7-1.5,1.4-3,2-4.5
				c0.9-2.1,1.7-4.2,2.6-6.3c0.7-1.6,1.5-3.2,2.2-4.9c0.6-1.5,1.2-3,1.9-4.5c0.5-1.2,1.1-2.4,1.5-3.6c0.8-1.9,1.5-3.8,2.3-5.7
				c0.4-1.1,1-2.1,1.5-3.2c1-2.4,2-4.9,3.1-7.3c0.5-1.3,1.1-2.5,1.7-3.7l0,0c0.1-0.3,0.4-0.4,0.7-0.5l0,0c0.3,0.1,0.5,0.3,0.6,0.5
				c0.8,1.7,1.6,3.4,2.3,5.1c1,2.4,1.9,4.8,2.9,7.2c0.6,1.5,1.3,3,2,4.4c0.9,2,1.7,4.1,2.5,6.1l1.5,3.3c0.5,1.1,0.9,2.1,1.3,3.2
				s1,2.2,1.4,3.3l2.1,5.1c0.5,1.1,1,2.3,1.6,3.4c0.2,0.4,0.3,0.8,0.5,1.2c0.4,0.8,0.7,1.7,1.1,2.5c0.5,1.2,0.9,2.4,1.4,3.6
				s1,2.2,1.5,3.4s0.9,2.2,1.4,3.3c0.6,1.3,1.2,2.6,1.8,4l2.7,6.6l1.5,3.3c0.5,1.1,1,2.4,1.5,3.6l2,4.6c0.7,1.6,1.3,3.1,2,4.6
				l2.1,4.8c0.7,1.6,1.4,3.4,2.1,5.1c0.6,1.4,1.3,2.9,1.9,4.3c0.4,0.9,0.8,1.8,1.1,2.7s0.8,2,1.2,3l0.9,2.1c0.2,0.5-0.1,0.7-0.5,0.9
				l0,0c-0.3,0.1-0.5,0.1-0.8,0.1h-70.5c-0.7,0-1-0.3-1-1v-3.6c0-0.5,0.2-0.8,0.8-0.8h62C331.5,261.1,331.8,261,332.3,261z"/>
			<path d="M366.9,206.5v44.1c0,1.2,0,1.2-1.2,1.2h-4.1c-1,0-1.1-0.1-1.1-1.1v-88.6c0-1,0.1-1.2,1.1-1.2h4.3c0.9,0,1,0.2,1,1
				L366.9,206.5L366.9,206.5z"/>
			<path d="M397.5,261.1h36c0.7,0,1,0.3,1,1v3.2c0,1.1-0.2,1.2-1.2,1.2h-71.8c-0.5-0.1-1-0.3-0.9-1.1c0.1-1.1,0-2.3,0-3.4l0,0
				c-0.1-0.4,0.2-0.8,0.6-0.9c0,0,0,0,0.1,0L397.5,261.1L397.5,261.1z"/>
		</g>
		<g id="_x32_020" class="st3">
			<path class="st4" d="M257.1,422.1h-14.3v-2.5c0-1.1,0.3-2.2,1-3.3c0.7-1.1,1.5-2,2.5-2.8c1-0.8,2.1-1.7,3.2-2.6
				c1.2-0.9,2.2-1.7,3.2-2.5c1-0.8,1.8-1.6,2.5-2.5c0.7-0.9,1-1.8,1-2.7c0-1.2-0.2-2.2-0.5-3c-0.3-0.8-0.8-1.3-1.5-1.7
				c-0.7-0.3-1.3-0.6-2-0.7c-0.7-0.1-1.5-0.2-2.4-0.2c-1.4,0-2.6,0.3-3.5,1c-0.9,0.6-1.7,1.8-2.2,3.4l3.9,2.9h-1.8l-3.3-2.5
				c0.5-2,1.3-3.4,2.4-4.4c1.1-1,2.6-1.4,4.5-1.4c2.6,0,4.5,0.5,5.7,1.5c1.2,1,1.8,2.7,1.8,5c0,1.1-0.3,2.1-1,3.1s-1.5,1.9-2.5,2.7
				c-1,0.8-2.1,1.6-3.2,2.5s-2.2,1.7-3.2,2.5c-1,0.8-1.8,1.6-2.5,2.6c-0.7,1-1,2-1,3v1.4h13.2V422.1z"/>
			<path class="st4" d="M275.4,418.9c-1.2,2.3-3.1,3.5-5.7,3.5c-2.6,0-4.5-1.2-5.7-3.5c-1.2-2.3-1.9-5.5-1.9-9.5
				c0-4,0.6-7.1,1.9-9.5c1.2-2.3,3.1-3.5,5.7-3.5c2.6,0,4.5,1.2,5.7,3.5c1.2,2.3,1.9,5.5,1.9,9.5S276.7,416.6,275.4,418.9z
				 M274.5,400.9c-1.1-2.2-2.7-3.3-4.8-3.3s-3.7,1.1-4.8,3.2c-1.1,2.2-1.7,5-1.7,8.6c0,3.6,0.6,6.5,1.7,8.6c1.1,2.2,2.7,3.2,4.8,3.2
				s3.7-1.1,4.8-3.3c1.1-2.2,1.7-5,1.7-8.6S275.7,403,274.5,400.9z"/>
			<path class="st4" d="M296.5,422.1h-14.3v-2.5c0-1.1,0.3-2.2,1-3.3c0.7-1.1,1.5-2,2.5-2.8c1-0.8,2.1-1.7,3.2-2.6
				c1.2-0.9,2.2-1.7,3.2-2.5c1-0.8,1.8-1.6,2.5-2.5c0.7-0.9,1-1.8,1-2.7c0-1.2-0.2-2.2-0.5-3c-0.3-0.8-0.8-1.3-1.5-1.7
				c-0.7-0.3-1.3-0.6-2-0.7s-1.5-0.2-2.4-0.2c-1.4,0-2.6,0.3-3.5,1c-0.9,0.6-1.7,1.8-2.2,3.4l3.9,2.9h-1.8l-3.3-2.5
				c0.5-2,1.3-3.4,2.4-4.4c1.1-1,2.6-1.4,4.5-1.4c2.6,0,4.5,0.5,5.7,1.5s1.8,2.7,1.8,5c0,1.1-0.3,2.1-1,3.1s-1.5,1.9-2.5,2.7
				c-1,0.8-2.1,1.6-3.2,2.5c-1.2,0.9-2.2,1.7-3.2,2.5c-1,0.8-1.8,1.6-2.5,2.6c-0.7,1-1,2-1,3v1.4h13.2V422.1z"/>
			<path class="st4" d="M314.8,418.9c-1.2,2.3-3.1,3.5-5.7,3.5s-4.5-1.2-5.7-3.5s-1.9-5.5-1.9-9.5c0-4,0.6-7.1,1.9-9.5
				c1.2-2.3,3.1-3.5,5.7-3.5s4.5,1.2,5.7,3.5s1.9,5.5,1.9,9.5S316,416.6,314.8,418.9z M313.9,400.9c-1.1-2.2-2.7-3.3-4.8-3.3
				s-3.7,1.1-4.8,3.2s-1.7,5-1.7,8.6c0,3.6,0.6,6.5,1.7,8.6s2.7,3.2,4.8,3.2s3.7-1.1,4.8-3.3c1.1-2.2,1.7-5,1.7-8.6
				S315,403,313.9,400.9z"/>
		</g>
		<g id="INSA_Lyon" class="st3">
			<path class="st4" d="M205.8,307h-1.1v-25.2h1.1V307z"/>
			<path class="st4" d="M215.7,305.9h11.2L214,283.6V307h-1.1v-25.2h1.3l13.5,23.3v-23.3h1.1V307h-13V305.9z"/>
			<path class="st4" d="M235.1,288c0-2.3,0.6-4,1.8-5s3.1-1.5,5.7-1.5c1.8,0,3.3,0.5,4.5,1.4s1.9,2.4,2.4,4.4l-3.3,2.5h-1.8l3.9-2.9
				c-0.5-1.6-1.2-2.7-2.2-3.4c-0.9-0.6-2.1-1-3.5-1c-1,0-1.8,0.1-2.4,0.2c-0.7,0.1-1.3,0.4-2,0.7c-0.7,0.3-1.2,0.9-1.5,1.7
				c-0.3,0.8-0.5,1.8-0.5,3c0,1.1,0.5,2,1.5,2.8c1,0.8,2.2,1.5,3.5,2.1c1.4,0.6,2.8,1.2,4.2,1.8c1.4,0.6,2.6,1.4,3.6,2.3
				c1,0.9,1.5,2,1.5,3.2c0,2.4-0.6,4.2-1.8,5.4c-1.2,1.2-3.2,1.8-6.1,1.8c-2.4,0-4.2-0.5-5.5-1.4c-1.3-0.9-2.3-2.4-2.8-4.4l1-0.4
				c0.5,1.9,1.3,3.3,2.5,4.1c1.2,0.8,2.8,1.1,4.8,1.1c2.3,0,4-0.4,5.1-1.3s1.7-2.5,1.7-4.7c0-1.1-0.5-2-1.5-2.8
				c-1-0.8-2.2-1.5-3.6-2.1c-1.4-0.6-2.8-1.2-4.2-1.8c-1.4-0.6-2.6-1.4-3.5-2.3C235.6,290.3,235.1,289.2,235.1,288z"/>
			<path class="st4" d="M256.7,305.9H270l-7.6-21l-8,22.1h-1.2l9.2-25.2l9.2,25.2h-14.8V305.9z"/>
			<path class="st4" d="M301.4,305.9v1.1h-15v-25.2h1.1v24.1H301.4z"/>
			<path class="st4" d="M306.7,281.8h14.6l-9,14.4V307h-1.1v-10.8l-9-14.4h1.3l8.3,13.2l7.6-12.1h-12.6V281.8z"/>
			<path class="st4" d="M339.1,304.6c-1.3,1.8-3.5,2.7-6.4,2.7s-5.1-0.9-6.4-2.7c-1.3-1.8-2-4.6-2-8.5v-3.5c0-3.8,0.7-6.7,2-8.5
				s3.5-2.7,6.4-2.7s5.1,0.9,6.4,2.7c1.3,1.8,2,4.6,2,8.5v3.5C341.1,300,340.5,302.8,339.1,304.6z M335.8,282.9
				c-0.8-0.3-1.8-0.5-3-0.5s-2.2,0.2-3,0.5c-0.8,0.3-1.6,0.8-2.3,1.5s-1.2,1.8-1.5,3.1c-0.3,1.4-0.5,3-0.5,5v3.5c0,2,0.2,3.7,0.5,5
				c0.3,1.4,0.8,2.4,1.5,3.1s1.4,1.2,2.3,1.5c0.8,0.3,1.8,0.5,3,0.5s2.2-0.1,3-0.5c0.8-0.3,1.6-0.8,2.3-1.5s1.2-1.8,1.5-3.1
				c0.3-1.4,0.5-3,0.5-5v-3.5c0-2-0.2-3.7-0.5-5s-0.8-2.4-1.5-3.1S336.6,283.3,335.8,282.9z"/>
			<path class="st4" d="M350.3,305.9h11.2l-12.9-22.3V307h-1.1v-25.2h1.3l13.5,23.3v-23.3h1.1V307h-13V305.9z"/>
		</g>
		
			<linearGradient id="Noeud_1_" gradientUnits="userSpaceOnUse" x1="211.23" y1="1152.6238" x2="302.11" y2="1243.5037" gradientTransform="matrix(1 0 0 1 23.3 -844.6937)">
			<stop  offset="0" style="stop-color:#E8BD5F"/>
			<stop  offset="0.5" style="stop-color:#FFFBBB"/>
			<stop  offset="1" style="stop-color:#EBC46A"/>
		</linearGradient>
		<path id="Noeud" class="st5" d="M337.3,386.9l-4.7-0.9l-14.6-3c-2.9-0.6-5.7-1.1-8.5-1.8l0,0c-0.7-0.2-1.4-0.6-2-1.1
			c-2.1-1.8-4.2-3.7-6.3-5.5c-1.4-1.2-2.9-2.4-4.4-3.6c-0.9-0.8-1.8-1.6-2.6-2.4c-1.2-1.1-1.6-1-3.2-0.5l0,0c-2,0.6-4,1.1-6.1,1.5
			l0,0c-5.6,1-11.4,0.5-16.8-1.4l0,0c-0.7-0.3-1.5-0.2-2,0.3l-4.5,3.9l-6.9,5.9l0,0c-0.6,0.6-1.1,1.1-1.7,1.6l0,0
			c-0.8,0.6-1.7,1.1-2.6,1.4c-4.2,0.9-8.5,1.8-12.7,2.6l-10.3,2.1c-1.3,0.3-2.7,0.5-4,0.8h-0.8c0.2-1.6,0.4-3.1,0.6-4.6
			c0.3-2.3,0.7-4.6,1.1-7l1.2-7.5c0.5-3.3,0.8-6.7,1.5-10c0.9-4,0.1-7.9-0.5-11.7s-1.1-7.5-1.7-11.3c-0.5-3.3-1.1-6.5-1.6-9.8
			c-0.2-1.5-0.4-3-0.6-4.8l0,0c1.1,0.1,2.3,0.2,3.4,0.5c4.5,1.3,9,2.6,13.6,3.9l15.7,4.5l0,0c0.6,0.2,1.1,0.5,1.6,0.9
			c2.8,2.5,5.5,5,8.3,7.5c1.3,1.2,1.8,1.3,3.5,0.7l0,0c1.4-0.5,2.9-0.9,4.4-1.1l0,0c2.5-0.5,5.1-0.7,7.7-0.6c3.8,0.2,7.5,0.6,11,2.3
			l0,0c0.9,0.4,1.9,0.2,2.5-0.5c3.1-2.8,6.2-5.7,9.3-8.5l0,0c0.3-0.2,0.6-0.4,1-0.5c3.8-1,7.4-2,11.1-3.1c3.2-0.9,6.4-1.8,9.6-2.8
			s6.6-1.9,9.9-2.8l0,0l2.4-0.3l0,0c0,0.8,0,1.7-0.1,2.5c-0.4,2.6-0.9,5.1-1.3,7.7c-0.3,1.5-0.4,3.1-0.6,4.7
			c-0.4,2.9-0.9,5.8-1.4,8.7c-0.4,2.4-0.7,4.8-1.1,7.2l0,0c-0.3,2.5-0.1,5,0.4,7.4c0.7,4.4,1.3,8.8,2,13.2l2.1,13.2l0,0
			C337.3,385.5,337.2,386.2,337.3,386.9z M306.6,354.3h-10.8c-1.2,0-1.8,0.5-1.8,1.6v9.1l0,0c0.1,0.5,0.3,1,0.6,1.4
			c1.7,1.6,3.5,3.1,5.2,4.7c2.5,2.1,4.9,4.3,7.4,6.4c0.9,1,2,1.7,3.2,2.1c7.5,1.6,15.1,3.1,22.7,4.6h1c-0.1-0.3-0.1-0.7-0.2-1l0,0
			l-0.3-0.6c-1.1-2-2.2-4.1-3.3-6.2c-2.4-4.7-4.8-9.4-7.3-14c-1.1-2.1-2.3-4.2-3.4-6.4l0,0c-0.5-1.1-1.7-1.8-2.9-1.7
			C313.4,354.4,310,354.3,306.6,354.3L306.6,354.3z M265.4,360.8L265.4,360.8c0-1.6,0.1-3.1,0-4.7c-0.1-1.3-0.7-1.8-1.9-1.8h-21
			c-0.8,0-1.6,0.4-1.9,1.2c-2.1,4.2-4.3,8.4-6.5,12.5s-4.4,8.4-6.7,12.7c-0.3,0.6-0.7,1.3-1,1.9s-0.2,1.1,0.7,1
			c1.8-0.1,3.7-0.4,5.5-0.7c5.7-1.1,11.4-2.2,17-3.3l0,0c0.6-0.2,1.2-0.5,1.7-0.9c1.1-0.9,2.2-1.9,3.3-2.8c3.4-3,6.7-6,10-8.9l0,0
			c0.6-0.6,1-1.4,1-2.2C265.4,363.5,265.4,362.1,265.4,360.8L265.4,360.8z M291.9,353.3v-10.5c0-1.9-0.5-2.5-2.3-3.1l0,0
			c-2.3-0.7-4.7-1.1-7.1-1.2l0,0c-4-0.3-8-0.1-11.9,0.8l0,0c-1.2,0.2-2.3,0.7-3.1,1.6l0,0c-0.3,0.4-0.5,0.8-0.5,1.3v20.7
			c0,2.4,0.6,3.3,3,4l0,0c6.6,1.7,13.5,1.6,20-0.4c1.6-0.6,2-1.1,2-2.8L291.9,353.3z M334.3,322.8c-1.2,0.2-2.2,0.4-3.1,0.6
			l-9.4,2.6c-5.1,1.4-10.1,2.8-15.2,4.3l0,0c-0.9,0.3-1.7,0.7-2.4,1.4c-1.7,1.5-3.3,3-5,4.5c-1.5,1.4-3,2.6-4.5,4.1l0,0
			c-0.4,0.5-0.7,1.1-0.8,1.8c-0.1,2.8,0,5.5,0,8.3c0,1.3,0.4,1.7,1.7,1.7h22c0.8,0,1.5-0.4,1.9-1.1l1.8-3.3c1.1-2.1,2.2-4.4,3.4-6.5
			L334.3,322.8z M252.9,352.1h10.4c1.4,0,1.8-0.4,2-1.7l0,0v-1c0-2.3-0.1-4.7,0-7l0,0c0.1-1.4-0.6-2.8-1.7-3.7
			c-2.3-2-4.4-4.2-6.7-6.2l0,0c-1-0.9-2.2-1.7-3.5-2.3l0,0c-1.5-0.5-3.1-1-4.7-1.4c-4.6-1.3-9.2-2.6-13.8-3.8
			c-2.6-0.7-5.2-1.4-7.9-2.1h-1.1c0,0.3,0.1,0.7,0.2,1c0.5,1,1.1,2,1.6,3c0.9,1.6,1.8,3.3,2.6,4.9c3.3,6.3,6.7,12.6,10,18.9l0,0
			c0.4,0.9,1.2,1.5,2.2,1.4L252.9,352.1z M334.4,380.3l0.3-0.1c0-0.4,0-0.7-0.1-1.1l-1.6-9.9c-0.6-3.8-1.3-7.5-1.7-11.3l0,0
			c-0.3-2-0.4-3.9-0.3-5.9c0.2-2,0.4-4,0.8-6c0.3-2.4,0.7-4.7,1-7c0.7-4.1,1.4-8.2,2.1-12.2l0,0V326c-0.2,0.2-0.3,0.2-0.3,0.3
			l-4.5,8.7c-3,5.7-5.9,11.3-8.9,17l0,0c-0.6,1-0.6,2.3,0.1,3.3c0.6,1.1,1.2,2.3,1.8,3.4l4.3,8.2c1.4,2.7,2.9,5.4,4.3,8.2
			c0.7,1.4,1.4,2.9,2.1,4.4l0,0C334,379.5,334.2,379.9,334.4,380.3L334.4,380.3z M225.8,326.9l-0.3,0.1c0,0.4,0,0.9,0.1,1.3
			l1.8,11.7c0.6,3.7,1.2,7.5,1.8,11.2l0,0c0.2,1.4,0.2,2.9,0,4.3c-0.2,2-0.6,3.9-0.9,5.9s-0.6,4.4-0.9,6.5c-0.6,3.5-1.3,7-1.9,10.4
			l0,0c-0.1,0.5-0.1,0.9-0.1,1.4l0.2,0.1c0.2-0.3,0.3-0.5,0.5-0.8c0.9-1.8,1.8-3.6,2.8-5.4c0.6-1.1,1.3-2.1,1.9-3.2
			c1-1.7,1.9-3.5,2.8-5.3l5.5-10.6l0,0c0.4-0.8,0.4-1.7,0-2.5c-1.8-3.5-3.6-7.1-5.5-10.6c-2.4-4.5-4.8-9-7.2-13.6L225.8,326.9z"/>
		<g id="Bal">
			
				<linearGradient id="SVGID_1_" gradientUnits="userSpaceOnUse" x1="137.09" y1="1053.9437" x2="212.3095" y2="1053.9437" gradientTransform="matrix(1 0 0 1 23.3 -844.6937)">
				<stop  offset="0" style="stop-color:#FFFBBB"/>
				<stop  offset="0.25" style="stop-color:#E8BD5F"/>
				<stop  offset="0.5" style="stop-color:#F9E9A1"/>
				<stop  offset="0.75" style="stop-color:#E3BB69"/>
				<stop  offset="1" style="stop-color:#F3DC91"/>
			</linearGradient>
			<path class="st6" d="M215.3,206.5l1.8,0.8c1.8,0.9,3.6,1.7,5.4,2.6l0,0c2.6,1.4,5,3.2,7,5.4l0,0c1.9,2,3.4,4.5,4.4,7.1
				c0.5,1.3,1,2.7,1.4,4l0,0c0.2,1,0.3,1.9,0.4,2.9c0,2.3,0.1,4.5,0,6.8l0,0c-0.1,1-0.3,2-0.6,3l0,0c-0.4,1.9-1.2,3.8-2.1,5.5l0,0
				c-1.5,2.8-3.5,5.2-5.9,7.2l0,0c-2.2,2-4.7,3.6-7.4,4.8l0,0c-1.7,0.8-3.5,1.5-5.3,2.1c-1.9,0.6-3.8,1.1-5.7,1.5l0,0
				c-1.1,0.2-2.2,0.4-3.3,0.5c-2.4,0.3-4.8,0.7-7.2,0.8c-3.6,0.2-7.2,0.4-10.8,0.4h-25.6c-1.1,0-1.2-0.1-1.2-1.2v-3.3
				c0-0.7,0.2-1,1-1h31.3c1.8,0,3.7-0.1,5.5-0.3l0,0c2.2-0.2,4.4-0.6,6.5-1c2.5-0.5,4.9-1.3,7.3-1.9l0,0c2.6-0.7,5.1-1.7,7.4-3.1
				l0,0c3-1.7,5.5-4.2,7.2-7.3l0,0c0.9-1.7,1.7-3.6,2.2-5.5l0,0c0.1-0.5,0.2-0.9,0.2-1.4l0,0c0.2-1.4,0.3-2.9,0.3-4.3l0,0
				c-0.2-1.9-0.5-3.8-0.9-5.6l0,0c-0.8-3-2.4-5.7-4.6-7.9l0,0c-1.9-1.9-4.2-3.5-6.6-4.7l0,0c-2.6-1.2-5.3-2.2-8.1-3
				c-1.6-0.5-3.1-1-4.7-1.5c-0.9-0.3-1.9-0.6-2.8-0.9c-0.2-0.1-0.6-0.3-0.6-0.5l0,0c0-0.3,0.2-0.5,0.4-0.7c1.1-0.6,2.3-1.1,3.4-1.7
				c3.4-1.7,7-3.1,10.1-5.3l0,0c2.5-1.6,4.5-4,5.8-6.7l0,0c0.5-1.4,1-2.7,1.4-4.1l0,0c0.7-2.6,0.8-5.4,0.3-8.1l0,0
				c-0.7-4.4-3-8.4-6.5-11.1l0,0c-2.6-2-5.4-3.5-8.5-4.5c-2.2-0.7-4.4-1.3-6.6-1.8l0,0c-3.7-0.7-7.4-1.2-11.2-1.4
				c-7.4-0.5-14.8-0.1-22.3-0.3c-0.5,0-0.8,0.1-0.7,0.7l0,0v83.1c0,0.6-0.2,0.9-0.8,0.9h-4.9c-0.2,0-0.5-0.4-0.5-0.6
				c-0.1-0.8-0.1-1.7,0-2.5v-85.6c0-1.2,0-1.2,1.3-1.2c9.1,0,18.2,0,27.3,0.1l0,0c2.4,0,4.7,0.2,7.1,0.5l0,0c2.5,0.3,5,0.8,7.4,1.3
				c2.1,0.5,4.2,1.3,6.4,1.9l0,0c2.4,0.7,4.6,1.7,6.7,3l0,0c3,1.7,5.6,3.9,7.8,6.6l0,0c1.3,1.7,2.4,3.6,3.2,5.6l0,0
				c0.9,2.5,1.4,5.1,1.5,7.7l0,0c0.1,2.2,0,4.4-0.4,6.5l0,0c-0.5,2.8-1.6,5.5-3.1,7.9l0,0C223,201.4,219.4,204.4,215.3,206.5z"/>
			
				<linearGradient id="SVGID_2_" gradientUnits="userSpaceOnUse" x1="223.75" y1="1054.1437" x2="313.6851" y2="1054.1437" gradientTransform="matrix(1 0 0 1 23.3 -844.6937)">
				<stop  offset="0" style="stop-color:#FFFBBB"/>
				<stop  offset="0.25" style="stop-color:#E8BD5F"/>
				<stop  offset="0.5" style="stop-color:#F9E9A1"/>
				<stop  offset="0.75" style="stop-color:#E3BB69"/>
				<stop  offset="1" style="stop-color:#F3DC91"/>
			</linearGradient>
			<path class="st7" d="M328.1,256.6L328.1,256.6c0-0.2,0-0.3-0.1-0.5c-0.8-1.7-1.5-3.4-2.3-5.1c-0.5-1-0.9-2.1-1.2-3.2l-1.2-2.7
				c-0.6-1.4-1.3-2.9-1.9-4.3c-0.9-2.2-1.8-4.4-2.8-6.6c-0.6-1.5-1.4-3-2-4.5c-0.5-1.1-0.9-2.3-1.4-3.4c-0.7-1.8-1.5-3.6-2.3-5.5
				s-1.6-3.7-2.4-5.6c-1.1-2.6-2.1-5.1-3.2-7.6c-0.6-1.5-1.4-3-2-4.4c-0.9-2.1-1.7-4.2-2.6-6.2s-1.9-4.4-2.8-6.6
				c-0.8-1.9-1.6-3.9-2.5-5.8c-0.6-1.4-1.2-2.7-1.9-4.1c-0.8-1.9-1.7-3.9-2.5-5.8c-0.3-0.6-0.4-1.2-0.7-1.8l0,0
				c-0.2-0.4-0.4-0.8-0.7-1.1l-0.9,2.1c-0.7,1.6-1.4,3.2-2,4.8s-1.3,3.2-2,4.8c-0.4,1-0.9,1.9-1.3,2.9c-0.8,1.9-1.6,3.7-2.4,5.6
				c-0.9,2.2-1.8,4.3-2.8,6.4c-0.6,1.5-1.4,3.1-2,4.6c-0.5,1.2-1,2.4-1.5,3.5l-2.4,5.7c-1.1,2.7-2.3,5.4-3.5,8
				c-1,2.3-1.9,4.6-2.8,6.8c-0.8,1.9-1.6,3.7-2.4,5.6c-0.5,1.2-1,2.5-1.5,3.7s-1,2.4-1.5,3.5c-0.7,1.7-1.4,3.3-2.2,5
				c-0.8,1.7-1.4,3.3-2.1,4.9c-0.5,1.3-1,2.5-1.6,3.8c-0.8,1.9-1.7,3.9-2.5,5.8c-0.3,0.6-0.5,1.3-0.8,1.9l0,0
				c-0.2,0.6-0.8,0.9-1.4,0.9h-4.5c-1,0-1.3-0.5-0.9-1.4c0.6-1.4,1.3-2.9,1.9-4.3c1.1-2.4,2.1-4.8,3.1-7.2c0.7-1.7,1.4-3.4,2.1-5
				c0.9-2.2,1.9-4.4,2.8-6.6c0.8-2,1.6-4,2.5-6.1c0.5-1.2,1.1-2.3,1.6-3.5s1-2.5,1.5-3.8c0.6-1.5,1.2-3.1,1.8-4.6
				c0.5-1.1,1-2.1,1.5-3.2c0.9-2.1,1.7-4.2,2.6-6.2c0.6-1.5,1.4-3,2-4.6s1.2-3.1,1.9-4.6c0.7-1.5,1.4-3,2-4.5
				c0.9-2.1,1.7-4.2,2.6-6.3c0.7-1.6,1.5-3.2,2.2-4.9c0.6-1.5,1.2-3,1.9-4.5c0.5-1.2,1.1-2.4,1.5-3.6c0.8-1.9,1.5-3.8,2.3-5.7
				c0.4-1.1,1-2.1,1.5-3.2c1-2.4,2-4.9,3.1-7.3c0.5-1.3,1.1-2.5,1.7-3.7l0,0c0.1-0.3,0.4-0.4,0.7-0.5l0,0c0.3,0.1,0.5,0.3,0.6,0.5
				c0.8,1.7,1.6,3.4,2.3,5.1c1,2.4,1.9,4.8,2.9,7.2c0.6,1.5,1.3,3,2,4.4c0.9,2,1.7,4.1,2.5,6.1l1.5,3.3c0.5,1.1,0.9,2.1,1.3,3.2
				s1,2.2,1.4,3.3l2.1,5.1c0.5,1.1,1,2.3,1.6,3.4c0.2,0.4,0.3,0.8,0.5,1.2c0.4,0.8,0.7,1.7,1.1,2.5c0.5,1.2,0.9,2.4,1.4,3.6
				s1,2.2,1.5,3.4s0.9,2.2,1.4,3.3c0.6,1.3,1.2,2.6,1.8,4l2.7,6.6l1.5,3.3c0.5,1.1,1,2.4,1.5,3.6l2,4.6c0.7,1.6,1.3,3.1,2,4.6
				l2.1,4.8c0.7,1.6,1.4,3.4,2.1,5.1c0.6,1.4,1.3,2.9,1.9,4.3c0.4,0.9,0.8,1.8,1.1,2.7c0.3,0.9,0.8,2,1.2,3l0.9,2.1
				c0.2,0.5-0.1,0.7-0.5,0.9l0,0c-0.3,0.1-0.5,0.1-0.8,0.1h-70.5c-0.7,0-1-0.3-1-1v-3.6c0-0.5,0.2-0.8,0.8-0.8h62
				C327.3,256.7,327.7,256.6,328.1,256.6z"/>
			
				<linearGradient id="SVGID_3_" gradientUnits="userSpaceOnUse" x1="315.8477" y1="1011.4907" x2="356.5793" y2="1082.0535" gradientTransform="matrix(1 0 0 1 23.3 -844.6937)">
				<stop  offset="0" style="stop-color:#E8BD5F"/>
				<stop  offset="1" style="stop-color:#FFFBBB"/>
			</linearGradient>
			<path class="st8" d="M362.7,202.2v44.1c0,1.2,0,1.2-1.2,1.2h-4.1c-1,0-1.1-0.1-1.1-1.1v-88.6c0-1,0.1-1.2,1.1-1.2h4.3
				c0.9,0,1,0.2,1,1L362.7,202.2L362.7,202.2z"/>
			
				<linearGradient id="SVGID_4_" gradientUnits="userSpaceOnUse" x1="332.98" y1="1104.0938" x2="406.99" y2="1104.0938" gradientTransform="matrix(1 0 0 1 23.3 -844.6937)">
				<stop  offset="0" style="stop-color:#FFFBBB"/>
				<stop  offset="0.25" style="stop-color:#E8BD5F"/>
				<stop  offset="0.5" style="stop-color:#F9E9A1"/>
				<stop  offset="0.75" style="stop-color:#E3BB69"/>
				<stop  offset="1" style="stop-color:#F3DC91"/>
			</linearGradient>
			<path class="st9" d="M393.3,256.7h36c0.7,0,1,0.3,1,1v3.2c0,1.1-0.2,1.2-1.2,1.2h-71.8c-0.5-0.1-1-0.3-0.9-1.1
				c0.1-1.1,0-2.3,0-3.4l0,0c-0.1-0.4,0.2-0.8,0.6-0.9c0,0,0,0,0.1,0L393.3,256.7L393.3,256.7z"/>
		</g>
	</g>
</g>
</svg>
