<?xml version="1.0" encoding="utf-8"?>
<!-- Generator: Adobe Illustrator 23.0.0, SVG Export Plug-In . SVG Version: 6.00 Build 0)  -->
<svg version="1.1" id="Calque_1" xmlns="http://www.w3.org/2000/svg" xmlns:xlink="http://www.w3.org/1999/xlink" x="0px" y="0px"
	 viewBox="0 0 559.3 539.3" style="enable-background:new 0 0 559.3 539.3;" xml:space="preserve">
<style type="text/css">
	.st0{fill:url(#SVGID_1_);}
	.st1{fill:url(#SVGID_2_);}
	.st2{fill:url(#SVGID_3_);}
	.st3{fill:url(#SVGID_4_);}
	.st4{fill:url(#SVGID_5_);}
	.st5{fill:url(#SVGID_6_);}
	.st6{fill:url(#SVGID_7_);}
	.st7{fill:url(#SVGID_8_);}
	.st8{fill:none;stroke:url(#Moyen_Octogone_1_);stroke-width:2;stroke-miterlimit:10;}
</style>
<title>logo</title>
<g id="Pétales_intérieures">
	
		<radialGradient id="SVGID_1_" cx="121.45" cy="346" r="58.28" gradientTransform="matrix(1 0 0 1 0 40)" gradientUnits="userSpaceOnUse">
		<stop  offset="0" style="stop-color:#220000"/>
		<stop  offset="0.92" style="stop-color:#710000"/>
	</radialGradient>
	<polygon class="st0" points="144.4,448.2 86.4,347.7 87.5,347.5 202.7,462.6 203.1,463.9 	"/>
	
		<radialGradient id="SVGID_2_" cx="261.35" cy="418.35" r="58.97" gradientTransform="matrix(1 0 0 1 0 40)" gradientUnits="userSpaceOnUse">
		<stop  offset="0" style="stop-color:#220000"/>
		<stop  offset="0.92" style="stop-color:#710000"/>
	</radialGradient>
	<polygon class="st1" points="314.1,493.5 203.1,463.9 202.7,462.6 365.5,462.6 366.6,463.2 	"/>
	
		<radialGradient id="SVGID_3_" cx="400.35" cy="345.6" r="58.03" gradientTransform="matrix(1 0 0 1 0 40)" gradientUnits="userSpaceOnUse">
		<stop  offset="0" style="stop-color:#220000"/>
		<stop  offset="0.92" style="stop-color:#710000"/>
	</radialGradient>
	<polygon class="st2" points="466.2,405.7 366.6,463.2 365.5,462.6 480.6,347.4 481.8,347.6 	"/>
	
		<radialGradient id="SVGID_4_" cx="472.85" cy="205.75" r="59.12" gradientTransform="matrix(1 0 0 1 0 40)" gradientUnits="userSpaceOnUse">
		<stop  offset="0" style="stop-color:#220000"/>
		<stop  offset="0.92" style="stop-color:#710000"/>
	</radialGradient>
	<polygon class="st3" points="511.7,236.1 481.8,347.6 480.6,347.4 480.7,184.6 481.2,183.3 	"/>
	
		<radialGradient id="SVGID_5_" cx="400.05" cy="66.85" r="57.95" gradientTransform="matrix(1 0 0 1 0 40)" gradientUnits="userSpaceOnUse">
		<stop  offset="0" style="stop-color:#220000"/>
		<stop  offset="0.92" style="stop-color:#710000"/>
	</radialGradient>
	<polygon class="st4" points="423.8,83.9 481.2,183.3 480.7,184.6 365.5,69.5 366,68.5 	"/>
	
		<radialGradient id="SVGID_6_" cx="260" cy="-5.65" r="59.49" gradientTransform="matrix(1 0 0 1 0 40)" gradientUnits="userSpaceOnUse">
		<stop  offset="0" style="stop-color:#220000"/>
		<stop  offset="0.92" style="stop-color:#710000"/>
	</radialGradient>
	<polygon class="st5" points="254.1,38.6 366,68.5 365.5,69.5 202.7,69.5 200.6,69.5 	"/>
	
		<radialGradient id="SVGID_7_" cx="121.25" cy="67.4" r="57.88" gradientTransform="matrix(1 0 0 1 0 40)" gradientUnits="userSpaceOnUse">
		<stop  offset="0" style="stop-color:#220000"/>
		<stop  offset="0.92" style="stop-color:#710000"/>
	</radialGradient>
	<polygon class="st6" points="102,126.4 200.6,69.5 202.7,69.5 87.6,184.7 86.4,184.7 	"/>
	
		<radialGradient id="SVGID_8_" cx="48.75" cy="206.5" r="58.67" gradientTransform="matrix(1 0 0 1 0 40)" gradientUnits="userSpaceOnUse">
		<stop  offset="0" style="stop-color:#220000"/>
		<stop  offset="0.92" style="stop-color:#710000"/>
	</radialGradient>
	<polygon class="st7" points="56.5,296 86.4,347.7 87.5,347.5 87.6,184.7 86.4,184.7 	"/>
</g>
<linearGradient id="Moyen_Octogone_1_" gradientUnits="userSpaceOnUse" x1="-1.5437" y1="48.2732" x2="424.6263" y2="48.2732" gradientTransform="matrix(0.87 -0.5 -0.5 -0.87 124.68 413.54)">
	<stop  offset="0" style="stop-color:#FFFBBB"/>
	<stop  offset="0.2" style="stop-color:#E8BD5F"/>
	<stop  offset="0.4" style="stop-color:#FBF1AC"/>
	<stop  offset="0.6" style="stop-color:#EDC971"/>
	<stop  offset="0.8" style="stop-color:#FCF4B1"/>
	<stop  offset="1" style="stop-color:#F0D380"/>
</linearGradient>
<polygon id="Moyen_Octogone" class="st8" points="254.1,38.6 102,126.4 56.5,296 144.4,448.2 314.1,493.5 466.2,405.7 511.7,236.1 
	423.8,83.9 "/>
</svg>
